<mxfile host="Electron" modified="2023-09-28T10:00:45.728Z" agent="Mozilla/5.0 (Macintosh; Intel Mac OS X 10_15_7) AppleWebKit/537.36 (KHTML, like Gecko) draw.io/21.6.8 Chrome/114.0.5735.289 Electron/25.5.0 Safari/537.36" etag="pScsFavNQg9fByedu9eY" version="21.6.8" type="device" pages="2">
  <diagram id="w_kBUNHLJEpZ8SMgnkuP" name="system">
    <mxGraphModel dx="970" dy="851" grid="1" gridSize="10" guides="1" tooltips="1" connect="1" arrows="1" fold="1" page="1" pageScale="1" pageWidth="1169" pageHeight="827" math="0" shadow="0">
      <root>
        <mxCell id="0" />
        <mxCell id="1" parent="0" />
        <mxCell id="x36AgCfwTCSdQekCz5lR-16" style="edgeStyle=orthogonalEdgeStyle;rounded=0;orthogonalLoop=1;jettySize=auto;html=1;exitX=1;exitY=0.5;exitDx=0;exitDy=0;endArrow=open;endFill=0;entryX=0;entryY=0.25;entryDx=0;entryDy=0;" parent="1" source="x36AgCfwTCSdQekCz5lR-1" target="x36AgCfwTCSdQekCz5lR-2" edge="1">
          <mxGeometry relative="1" as="geometry">
            <mxPoint x="500" y="260" as="targetPoint" />
            <Array as="points">
              <mxPoint x="241" y="255" />
            </Array>
          </mxGeometry>
        </mxCell>
        <mxCell id="nuv8BnRBy3D-64j3F0XW-45" style="edgeStyle=orthogonalEdgeStyle;rounded=1;orthogonalLoop=1;jettySize=auto;html=1;exitX=0.75;exitY=0;exitDx=0;exitDy=0;entryX=0.25;entryY=0;entryDx=0;entryDy=0;endArrow=open;endFill=0;dashed=1;" edge="1" parent="1" source="x36AgCfwTCSdQekCz5lR-1" target="x36AgCfwTCSdQekCz5lR-2">
          <mxGeometry relative="1" as="geometry" />
        </mxCell>
        <mxCell id="x36AgCfwTCSdQekCz5lR-1" value="CrackPasswords" style="rounded=0;whiteSpace=wrap;html=1;strokeColor=#666666;fillColor=#f5f5f5;fontColor=#333333;" parent="1" vertex="1">
          <mxGeometry x="160" y="225" width="120" height="60" as="geometry" />
        </mxCell>
        <mxCell id="nuv8BnRBy3D-64j3F0XW-1" style="edgeStyle=orthogonalEdgeStyle;rounded=1;orthogonalLoop=1;jettySize=auto;html=1;exitX=0;exitY=0.5;exitDx=0;exitDy=0;entryX=0.5;entryY=0;entryDx=0;entryDy=0;dashed=1;endArrow=open;endFill=0;" edge="1" parent="1" source="x36AgCfwTCSdQekCz5lR-2" target="x36AgCfwTCSdQekCz5lR-3">
          <mxGeometry relative="1" as="geometry" />
        </mxCell>
        <mxCell id="nuv8BnRBy3D-64j3F0XW-3" style="edgeStyle=orthogonalEdgeStyle;rounded=1;orthogonalLoop=1;jettySize=auto;html=1;exitX=0.25;exitY=1;exitDx=0;exitDy=0;entryX=0.25;entryY=0;entryDx=0;entryDy=0;dashed=1;endArrow=open;endFill=0;" edge="1" parent="1" source="x36AgCfwTCSdQekCz5lR-2" target="x36AgCfwTCSdQekCz5lR-6">
          <mxGeometry relative="1" as="geometry" />
        </mxCell>
        <mxCell id="nuv8BnRBy3D-64j3F0XW-5" style="edgeStyle=orthogonalEdgeStyle;rounded=1;orthogonalLoop=1;jettySize=auto;html=1;exitX=1;exitY=0.5;exitDx=0;exitDy=0;entryX=0.75;entryY=0;entryDx=0;entryDy=0;dashed=1;endArrow=open;endFill=0;" edge="1" parent="1" source="x36AgCfwTCSdQekCz5lR-2" target="x36AgCfwTCSdQekCz5lR-4">
          <mxGeometry relative="1" as="geometry" />
        </mxCell>
        <mxCell id="nuv8BnRBy3D-64j3F0XW-7" style="edgeStyle=orthogonalEdgeStyle;rounded=1;orthogonalLoop=1;jettySize=auto;html=1;exitX=0;exitY=0.75;exitDx=0;exitDy=0;entryX=0.75;entryY=0;entryDx=0;entryDy=0;endArrow=open;endFill=0;" edge="1" parent="1" source="x36AgCfwTCSdQekCz5lR-2" target="x36AgCfwTCSdQekCz5lR-3">
          <mxGeometry relative="1" as="geometry">
            <Array as="points">
              <mxPoint x="400" y="285" />
            </Array>
          </mxGeometry>
        </mxCell>
        <mxCell id="nuv8BnRBy3D-64j3F0XW-9" style="edgeStyle=orthogonalEdgeStyle;rounded=1;orthogonalLoop=1;jettySize=auto;html=1;exitX=0.5;exitY=1;exitDx=0;exitDy=0;entryX=0.5;entryY=0;entryDx=0;entryDy=0;endArrow=open;endFill=0;" edge="1" parent="1" source="x36AgCfwTCSdQekCz5lR-2" target="x36AgCfwTCSdQekCz5lR-6">
          <mxGeometry relative="1" as="geometry" />
        </mxCell>
        <mxCell id="nuv8BnRBy3D-64j3F0XW-11" style="edgeStyle=orthogonalEdgeStyle;rounded=1;orthogonalLoop=1;jettySize=auto;html=1;entryX=0.5;entryY=0;entryDx=0;entryDy=0;exitX=1;exitY=0.75;exitDx=0;exitDy=0;endArrow=open;endFill=0;" edge="1" parent="1" source="x36AgCfwTCSdQekCz5lR-2" target="x36AgCfwTCSdQekCz5lR-4">
          <mxGeometry relative="1" as="geometry">
            <mxPoint x="650" y="300" as="sourcePoint" />
            <Array as="points">
              <mxPoint x="800" y="285" />
            </Array>
          </mxGeometry>
        </mxCell>
        <mxCell id="x36AgCfwTCSdQekCz5lR-2" value="&lt;span style=&quot;background-color: rgb(255 , 242 , 204)&quot;&gt;PasswordsRoot&lt;/span&gt;" style="shape=process;whiteSpace=wrap;html=1;backgroundOutline=1;labelBackgroundColor=#E6E6E6;strokeColor=#d6b656;fillColor=#fff2cc;" parent="1" vertex="1">
          <mxGeometry x="520" y="240" width="120" height="60" as="geometry" />
        </mxCell>
        <mxCell id="nuv8BnRBy3D-64j3F0XW-13" style="edgeStyle=orthogonalEdgeStyle;rounded=1;orthogonalLoop=1;jettySize=auto;html=1;exitX=1;exitY=0;exitDx=0;exitDy=0;entryX=0;entryY=1;entryDx=0;entryDy=0;endArrow=open;endFill=0;" edge="1" parent="1" source="x36AgCfwTCSdQekCz5lR-3" target="x36AgCfwTCSdQekCz5lR-2">
          <mxGeometry relative="1" as="geometry" />
        </mxCell>
        <mxCell id="x36AgCfwTCSdQekCz5lR-3" value="&lt;span style=&quot;background-color: rgb(255 , 242 , 204)&quot;&gt;PasswordsActor&amp;nbsp;&lt;i&gt;1&lt;/i&gt;&lt;/span&gt;" style="shape=process;whiteSpace=wrap;html=1;backgroundOutline=1;labelBackgroundColor=#E6E6E6;strokeColor=#d6b656;fillColor=#fff2cc;" parent="1" vertex="1">
          <mxGeometry x="310" y="399" width="120" height="60" as="geometry" />
        </mxCell>
        <mxCell id="nuv8BnRBy3D-64j3F0XW-16" style="edgeStyle=orthogonalEdgeStyle;rounded=1;orthogonalLoop=1;jettySize=auto;html=1;exitX=0.25;exitY=0;exitDx=0;exitDy=0;entryX=1;entryY=1;entryDx=0;entryDy=0;endArrow=open;endFill=0;" edge="1" parent="1" source="x36AgCfwTCSdQekCz5lR-4" target="x36AgCfwTCSdQekCz5lR-2">
          <mxGeometry relative="1" as="geometry">
            <Array as="points">
              <mxPoint x="770" y="350" />
              <mxPoint x="680" y="350" />
              <mxPoint x="680" y="300" />
            </Array>
          </mxGeometry>
        </mxCell>
        <mxCell id="x36AgCfwTCSdQekCz5lR-4" value="PasswordsActor&lt;span style=&quot;background-color: rgb(255 , 242 , 204)&quot;&gt;&amp;nbsp;&lt;i&gt;n&lt;/i&gt;&lt;/span&gt;" style="shape=process;whiteSpace=wrap;html=1;backgroundOutline=1;labelBackgroundColor=#E6E6E6;strokeColor=#d6b656;fillColor=#fff2cc;" parent="1" vertex="1">
          <mxGeometry x="740" y="399" width="120" height="60" as="geometry" />
        </mxCell>
        <mxCell id="nuv8BnRBy3D-64j3F0XW-18" style="edgeStyle=orthogonalEdgeStyle;rounded=1;orthogonalLoop=1;jettySize=auto;html=1;exitX=0.75;exitY=0;exitDx=0;exitDy=0;entryX=0.75;entryY=1;entryDx=0;entryDy=0;endArrow=open;endFill=0;" edge="1" parent="1" source="x36AgCfwTCSdQekCz5lR-6" target="x36AgCfwTCSdQekCz5lR-2">
          <mxGeometry relative="1" as="geometry">
            <Array as="points">
              <mxPoint x="590" y="390" />
              <mxPoint x="660" y="390" />
              <mxPoint x="660" y="340" />
              <mxPoint x="610" y="340" />
            </Array>
          </mxGeometry>
        </mxCell>
        <mxCell id="x36AgCfwTCSdQekCz5lR-6" value="PasswordsActor&lt;span style=&quot;background-color: rgb(255 , 242 , 204)&quot;&gt;&amp;nbsp;&lt;i&gt;2&lt;/i&gt;&lt;/span&gt;" style="shape=process;whiteSpace=wrap;html=1;backgroundOutline=1;labelBackgroundColor=#E6E6E6;strokeColor=#d6b656;fillColor=#fff2cc;" parent="1" vertex="1">
          <mxGeometry x="500" y="399" width="120" height="60" as="geometry" />
        </mxCell>
        <mxCell id="nuv8BnRBy3D-64j3F0XW-20" style="edgeStyle=orthogonalEdgeStyle;rounded=1;orthogonalLoop=1;jettySize=auto;html=1;exitX=0;exitY=0;exitDx=0;exitDy=34.75;exitPerimeter=0;entryX=0.5;entryY=1;entryDx=0;entryDy=0;dashed=1;dashPattern=1 1;" edge="1" parent="1" source="x36AgCfwTCSdQekCz5lR-9" target="x36AgCfwTCSdQekCz5lR-1">
          <mxGeometry relative="1" as="geometry" />
        </mxCell>
        <mxCell id="nuv8BnRBy3D-64j3F0XW-25" style="edgeStyle=orthogonalEdgeStyle;rounded=1;orthogonalLoop=1;jettySize=auto;html=1;exitX=0.145;exitY=0;exitDx=0;exitDy=4.35;exitPerimeter=0;entryX=0.5;entryY=1;entryDx=0;entryDy=0;dashed=1;dashPattern=1 1;" edge="1" parent="1" source="x36AgCfwTCSdQekCz5lR-9" target="x36AgCfwTCSdQekCz5lR-3">
          <mxGeometry relative="1" as="geometry" />
        </mxCell>
        <mxCell id="nuv8BnRBy3D-64j3F0XW-26" style="edgeStyle=orthogonalEdgeStyle;rounded=1;orthogonalLoop=1;jettySize=auto;html=1;exitX=0.5;exitY=0;exitDx=0;exitDy=0;exitPerimeter=0;entryX=0.25;entryY=1;entryDx=0;entryDy=0;dashed=1;dashPattern=1 1;" edge="1" parent="1" source="x36AgCfwTCSdQekCz5lR-9" target="x36AgCfwTCSdQekCz5lR-6">
          <mxGeometry relative="1" as="geometry" />
        </mxCell>
        <mxCell id="nuv8BnRBy3D-64j3F0XW-27" style="edgeStyle=orthogonalEdgeStyle;rounded=1;orthogonalLoop=1;jettySize=auto;html=1;exitX=0.855;exitY=0;exitDx=0;exitDy=4.35;exitPerimeter=0;entryX=0.5;entryY=1;entryDx=0;entryDy=0;dashed=1;dashPattern=1 1;" edge="1" parent="1" source="x36AgCfwTCSdQekCz5lR-9" target="x36AgCfwTCSdQekCz5lR-4">
          <mxGeometry relative="1" as="geometry" />
        </mxCell>
        <mxCell id="x36AgCfwTCSdQekCz5lR-9" value="" style="shape=cylinder3;whiteSpace=wrap;html=1;boundedLbl=1;backgroundOutline=1;size=15;labelBackgroundColor=#E6E6E6;strokeColor=#000000;" parent="1" vertex="1">
          <mxGeometry x="425" y="520" width="70" height="109" as="geometry" />
        </mxCell>
        <mxCell id="nuv8BnRBy3D-64j3F0XW-33" style="edgeStyle=orthogonalEdgeStyle;rounded=1;orthogonalLoop=1;jettySize=auto;html=1;exitX=0.855;exitY=0;exitDx=0;exitDy=4.35;exitPerimeter=0;entryX=0.25;entryY=1;entryDx=0;entryDy=0;dashed=1;dashPattern=1 1;" edge="1" parent="1" source="x36AgCfwTCSdQekCz5lR-10" target="x36AgCfwTCSdQekCz5lR-4">
          <mxGeometry relative="1" as="geometry">
            <Array as="points">
              <mxPoint x="581" y="480" />
              <mxPoint x="770" y="480" />
            </Array>
          </mxGeometry>
        </mxCell>
        <mxCell id="x36AgCfwTCSdQekCz5lR-10" value="" style="shape=cylinder3;whiteSpace=wrap;html=1;boundedLbl=1;backgroundOutline=1;size=15;labelBackgroundColor=#E6E6E6;strokeColor=#000000;" parent="1" vertex="1">
          <mxGeometry x="530" y="536" width="60" height="94" as="geometry" />
        </mxCell>
        <mxCell id="x36AgCfwTCSdQekCz5lR-12" value="Size&lt;br&gt;N &amp;lt; 100&lt;br&gt;lines" style="text;html=1;resizable=0;autosize=1;align=center;verticalAlign=middle;points=[];fillColor=none;strokeColor=none;rounded=0;labelBackgroundColor=#FFFFFF;" parent="1" vertex="1">
          <mxGeometry x="525" y="569" width="70" height="60" as="geometry" />
        </mxCell>
        <mxCell id="x36AgCfwTCSdQekCz5lR-14" value="Size&lt;br&gt;M = 5 MB" style="text;html=1;resizable=0;autosize=1;align=center;verticalAlign=middle;points=[];fillColor=none;strokeColor=none;rounded=0;labelBackgroundColor=#FFFFFF;" parent="1" vertex="1">
          <mxGeometry x="420" y="584" width="80" height="40" as="geometry" />
        </mxCell>
        <mxCell id="x36AgCfwTCSdQekCz5lR-22" value="" style="endArrow=none;html=1;rounded=0;dashed=1;" parent="1" edge="1">
          <mxGeometry width="50" height="50" relative="1" as="geometry">
            <mxPoint x="670" y="430" as="sourcePoint" />
            <mxPoint x="690" y="430" as="targetPoint" />
          </mxGeometry>
        </mxCell>
        <mxCell id="x36AgCfwTCSdQekCz5lR-41" value="" style="shape=flexArrow;endArrow=classic;html=1;rounded=0;" parent="1" edge="1">
          <mxGeometry width="50" height="50" relative="1" as="geometry">
            <mxPoint x="579.76" y="230" as="sourcePoint" />
            <mxPoint x="579.76" y="170" as="targetPoint" />
          </mxGeometry>
        </mxCell>
        <mxCell id="x36AgCfwTCSdQekCz5lR-42" value="Output all replies" style="text;html=1;align=center;verticalAlign=middle;resizable=0;points=[];autosize=1;strokeColor=none;fillColor=none;" parent="1" vertex="1">
          <mxGeometry x="525" y="140" width="110" height="30" as="geometry" />
        </mxCell>
        <mxCell id="nuv8BnRBy3D-64j3F0XW-2" value="&amp;lt;&amp;lt;spawn&amp;gt;&amp;gt;" style="text;html=1;align=center;verticalAlign=middle;resizable=0;points=[];autosize=1;strokeColor=none;fillColor=none;" vertex="1" parent="1">
          <mxGeometry x="285" y="310" width="90" height="30" as="geometry" />
        </mxCell>
        <mxCell id="nuv8BnRBy3D-64j3F0XW-4" value="&amp;lt;&amp;lt;spawn&amp;gt;&amp;gt;" style="text;html=1;align=center;verticalAlign=middle;resizable=0;points=[];autosize=1;strokeColor=none;fillColor=none;" vertex="1" parent="1">
          <mxGeometry x="445" y="360" width="90" height="30" as="geometry" />
        </mxCell>
        <mxCell id="nuv8BnRBy3D-64j3F0XW-6" value="&amp;lt;&amp;lt;spawn&amp;gt;&amp;gt;" style="text;html=1;align=center;verticalAlign=middle;resizable=0;points=[];autosize=1;strokeColor=none;fillColor=none;" vertex="1" parent="1">
          <mxGeometry x="830" y="310" width="90" height="30" as="geometry" />
        </mxCell>
        <mxCell id="nuv8BnRBy3D-64j3F0XW-8" value="SetupMessage" style="text;html=1;align=center;verticalAlign=middle;resizable=0;points=[];autosize=1;strokeColor=none;fillColor=none;" vertex="1" parent="1">
          <mxGeometry x="400" y="285" width="100" height="30" as="geometry" />
        </mxCell>
        <mxCell id="nuv8BnRBy3D-64j3F0XW-10" value="SetupMessage" style="text;html=1;align=center;verticalAlign=middle;resizable=0;points=[];autosize=1;strokeColor=none;fillColor=none;" vertex="1" parent="1">
          <mxGeometry x="560" y="350" width="100" height="30" as="geometry" />
        </mxCell>
        <mxCell id="nuv8BnRBy3D-64j3F0XW-12" value="SetupMessage" style="text;html=1;align=center;verticalAlign=middle;resizable=0;points=[];autosize=1;strokeColor=none;fillColor=none;" vertex="1" parent="1">
          <mxGeometry x="700" y="284" width="100" height="30" as="geometry" />
        </mxCell>
        <mxCell id="nuv8BnRBy3D-64j3F0XW-14" value="ResultMessage" style="text;html=1;align=center;verticalAlign=middle;resizable=0;points=[];autosize=1;strokeColor=none;fillColor=none;" vertex="1" parent="1">
          <mxGeometry x="410" y="320" width="110" height="30" as="geometry" />
        </mxCell>
        <mxCell id="nuv8BnRBy3D-64j3F0XW-17" value="ResultMessage" style="text;html=1;align=center;verticalAlign=middle;resizable=0;points=[];autosize=1;strokeColor=none;fillColor=none;" vertex="1" parent="1">
          <mxGeometry x="680" y="320" width="110" height="30" as="geometry" />
        </mxCell>
        <mxCell id="nuv8BnRBy3D-64j3F0XW-19" value="ResultMessage" style="text;html=1;align=center;verticalAlign=middle;resizable=0;points=[];autosize=1;strokeColor=none;fillColor=none;" vertex="1" parent="1">
          <mxGeometry x="625" y="390" width="110" height="30" as="geometry" />
        </mxCell>
        <mxCell id="nuv8BnRBy3D-64j3F0XW-28" value="Usernames, salt, and hashed passwords" style="text;html=1;align=center;verticalAlign=middle;resizable=0;points=[];autosize=1;strokeColor=none;fillColor=none;" vertex="1" parent="1">
          <mxGeometry x="445" y="632" width="240" height="30" as="geometry" />
        </mxCell>
        <mxCell id="nuv8BnRBy3D-64j3F0XW-30" value="Cleartext password" style="text;html=1;align=center;verticalAlign=middle;resizable=0;points=[];autosize=1;strokeColor=none;fillColor=none;" vertex="1" parent="1">
          <mxGeometry x="290" y="584" width="130" height="30" as="geometry" />
        </mxCell>
        <mxCell id="nuv8BnRBy3D-64j3F0XW-31" style="edgeStyle=orthogonalEdgeStyle;rounded=1;orthogonalLoop=1;jettySize=auto;html=1;entryX=0.75;entryY=1;entryDx=0;entryDy=0;dashed=1;dashPattern=1 1;" edge="1" parent="1" target="x36AgCfwTCSdQekCz5lR-3">
          <mxGeometry relative="1" as="geometry">
            <mxPoint x="539" y="560" as="sourcePoint" />
            <mxPoint x="380" y="469" as="targetPoint" />
            <Array as="points">
              <mxPoint x="539" y="480" />
              <mxPoint x="400" y="480" />
            </Array>
          </mxGeometry>
        </mxCell>
        <mxCell id="nuv8BnRBy3D-64j3F0XW-32" style="edgeStyle=orthogonalEdgeStyle;rounded=1;orthogonalLoop=1;jettySize=auto;html=1;exitX=0.5;exitY=0;exitDx=0;exitDy=0;exitPerimeter=0;entryX=0.5;entryY=1;entryDx=0;entryDy=0;dashed=1;dashPattern=1 1;" edge="1" parent="1" source="x36AgCfwTCSdQekCz5lR-10" target="x36AgCfwTCSdQekCz5lR-6">
          <mxGeometry relative="1" as="geometry">
            <mxPoint x="470" y="530" as="sourcePoint" />
            <mxPoint x="570" y="469" as="targetPoint" />
          </mxGeometry>
        </mxCell>
        <mxCell id="nuv8BnRBy3D-64j3F0XW-44" value="" style="group" vertex="1" connectable="0" parent="1">
          <mxGeometry x="670" y="539" width="240" height="93" as="geometry" />
        </mxCell>
        <mxCell id="nuv8BnRBy3D-64j3F0XW-36" style="edgeStyle=orthogonalEdgeStyle;rounded=0;orthogonalLoop=1;jettySize=auto;html=1;endArrow=open;endFill=0;" edge="1" parent="nuv8BnRBy3D-64j3F0XW-44">
          <mxGeometry relative="1" as="geometry">
            <mxPoint x="70" y="46" as="targetPoint" />
            <mxPoint x="10" y="46" as="sourcePoint" />
            <Array as="points">
              <mxPoint x="10" y="46" />
              <mxPoint x="10" y="46" />
            </Array>
          </mxGeometry>
        </mxCell>
        <mxCell id="nuv8BnRBy3D-64j3F0XW-34" value="Legend for arrows:" style="text;html=1;align=center;verticalAlign=middle;resizable=0;points=[];autosize=1;strokeColor=none;fillColor=none;" vertex="1" parent="nuv8BnRBy3D-64j3F0XW-44">
          <mxGeometry width="120" height="30" as="geometry" />
        </mxCell>
        <mxCell id="nuv8BnRBy3D-64j3F0XW-37" value="asynchronous message" style="text;html=1;align=left;verticalAlign=middle;resizable=0;points=[];autosize=1;strokeColor=none;fillColor=none;" vertex="1" parent="nuv8BnRBy3D-64j3F0XW-44">
          <mxGeometry x="90" y="30" width="150" height="30" as="geometry" />
        </mxCell>
        <mxCell id="nuv8BnRBy3D-64j3F0XW-40" style="edgeStyle=orthogonalEdgeStyle;rounded=0;orthogonalLoop=1;jettySize=auto;html=1;endArrow=open;endFill=0;dashed=1;" edge="1" parent="nuv8BnRBy3D-64j3F0XW-44">
          <mxGeometry relative="1" as="geometry">
            <mxPoint x="70" y="63" as="targetPoint" />
            <mxPoint x="10" y="63" as="sourcePoint" />
            <Array as="points">
              <mxPoint x="10" y="63" />
              <mxPoint x="10" y="63" />
            </Array>
          </mxGeometry>
        </mxCell>
        <mxCell id="nuv8BnRBy3D-64j3F0XW-41" value="create / spawn operation" style="text;html=1;align=left;verticalAlign=middle;resizable=0;points=[];autosize=1;strokeColor=none;fillColor=none;" vertex="1" parent="nuv8BnRBy3D-64j3F0XW-44">
          <mxGeometry x="90" y="46" width="150" height="30" as="geometry" />
        </mxCell>
        <mxCell id="nuv8BnRBy3D-64j3F0XW-42" style="edgeStyle=orthogonalEdgeStyle;rounded=0;orthogonalLoop=1;jettySize=auto;html=1;endArrow=classic;endFill=1;dashed=1;dashPattern=1 1;" edge="1" parent="nuv8BnRBy3D-64j3F0XW-44">
          <mxGeometry relative="1" as="geometry">
            <mxPoint x="70" y="77.5" as="targetPoint" />
            <mxPoint x="10" y="77.5" as="sourcePoint" />
            <Array as="points">
              <mxPoint x="10" y="77.5" />
              <mxPoint x="10" y="77.5" />
            </Array>
          </mxGeometry>
        </mxCell>
        <mxCell id="nuv8BnRBy3D-64j3F0XW-43" value="read operation" style="text;html=1;align=left;verticalAlign=middle;resizable=0;points=[];autosize=1;strokeColor=none;fillColor=none;" vertex="1" parent="nuv8BnRBy3D-64j3F0XW-44">
          <mxGeometry x="90" y="63" width="100" height="30" as="geometry" />
        </mxCell>
        <mxCell id="nuv8BnRBy3D-64j3F0XW-46" value="&amp;lt;&amp;lt;create&amp;gt;&amp;gt;" style="text;html=1;align=center;verticalAlign=middle;resizable=0;points=[];autosize=1;strokeColor=none;fillColor=none;" vertex="1" parent="1">
          <mxGeometry x="375" y="180" width="80" height="30" as="geometry" />
        </mxCell>
        <mxCell id="nuv8BnRBy3D-64j3F0XW-48" value="InitMessage" style="text;html=1;align=center;verticalAlign=middle;resizable=0;points=[];autosize=1;strokeColor=none;fillColor=none;" vertex="1" parent="1">
          <mxGeometry x="350" y="225" width="90" height="30" as="geometry" />
        </mxCell>
      </root>
    </mxGraphModel>
  </diagram>
  <diagram id="qK75M0RnVUDEoWtQLM0P" name="graph">
    <mxGraphModel dx="970" dy="851" grid="1" gridSize="10" guides="1" tooltips="1" connect="1" arrows="1" fold="1" page="1" pageScale="1" pageWidth="827" pageHeight="1169" math="0" shadow="0">
      <root>
        <mxCell id="0" />
        <mxCell id="1" parent="0" />
        <mxCell id="CJ9ukZXgwFHup2nmd63K-1" value="" style="endArrow=classic;html=1;rounded=0;" edge="1" parent="1">
          <mxGeometry width="50" height="50" relative="1" as="geometry">
            <mxPoint x="320" y="400" as="sourcePoint" />
            <mxPoint x="680" y="400" as="targetPoint" />
          </mxGeometry>
        </mxCell>
        <mxCell id="CJ9ukZXgwFHup2nmd63K-2" value="nbActors" style="text;html=1;align=center;verticalAlign=middle;resizable=0;points=[];autosize=1;strokeColor=none;fillColor=none;" vertex="1" parent="1">
          <mxGeometry x="670" y="410" width="70" height="30" as="geometry" />
        </mxCell>
        <mxCell id="CJ9ukZXgwFHup2nmd63K-13" value="" style="group" vertex="1" connectable="0" parent="1">
          <mxGeometry x="360" y="390" width="280" height="20" as="geometry" />
        </mxCell>
        <mxCell id="CJ9ukZXgwFHup2nmd63K-3" value="" style="endArrow=none;html=1;rounded=0;" edge="1" parent="CJ9ukZXgwFHup2nmd63K-13">
          <mxGeometry width="50" height="50" relative="1" as="geometry">
            <mxPoint y="20" as="sourcePoint" />
            <mxPoint as="targetPoint" />
          </mxGeometry>
        </mxCell>
        <mxCell id="CJ9ukZXgwFHup2nmd63K-4" value="" style="endArrow=none;html=1;rounded=0;" edge="1" parent="CJ9ukZXgwFHup2nmd63K-13">
          <mxGeometry width="50" height="50" relative="1" as="geometry">
            <mxPoint x="40" y="20" as="sourcePoint" />
            <mxPoint x="40" as="targetPoint" />
          </mxGeometry>
        </mxCell>
        <mxCell id="CJ9ukZXgwFHup2nmd63K-5" value="" style="endArrow=none;html=1;rounded=0;" edge="1" parent="CJ9ukZXgwFHup2nmd63K-13">
          <mxGeometry width="50" height="50" relative="1" as="geometry">
            <mxPoint x="80" y="20" as="sourcePoint" />
            <mxPoint x="80" as="targetPoint" />
          </mxGeometry>
        </mxCell>
        <mxCell id="CJ9ukZXgwFHup2nmd63K-6" value="" style="endArrow=none;html=1;rounded=0;" edge="1" parent="CJ9ukZXgwFHup2nmd63K-13">
          <mxGeometry width="50" height="50" relative="1" as="geometry">
            <mxPoint x="120" y="20" as="sourcePoint" />
            <mxPoint x="120" as="targetPoint" />
          </mxGeometry>
        </mxCell>
        <mxCell id="CJ9ukZXgwFHup2nmd63K-8" value="" style="endArrow=none;html=1;rounded=0;" edge="1" parent="CJ9ukZXgwFHup2nmd63K-13">
          <mxGeometry width="50" height="50" relative="1" as="geometry">
            <mxPoint x="160" y="20" as="sourcePoint" />
            <mxPoint x="160" as="targetPoint" />
          </mxGeometry>
        </mxCell>
        <mxCell id="CJ9ukZXgwFHup2nmd63K-9" value="" style="endArrow=none;html=1;rounded=0;" edge="1" parent="CJ9ukZXgwFHup2nmd63K-13">
          <mxGeometry width="50" height="50" relative="1" as="geometry">
            <mxPoint x="200" y="20" as="sourcePoint" />
            <mxPoint x="200" as="targetPoint" />
          </mxGeometry>
        </mxCell>
        <mxCell id="CJ9ukZXgwFHup2nmd63K-10" value="" style="endArrow=none;html=1;rounded=0;" edge="1" parent="CJ9ukZXgwFHup2nmd63K-13">
          <mxGeometry width="50" height="50" relative="1" as="geometry">
            <mxPoint x="240" y="20" as="sourcePoint" />
            <mxPoint x="240" as="targetPoint" />
          </mxGeometry>
        </mxCell>
        <mxCell id="CJ9ukZXgwFHup2nmd63K-11" value="" style="endArrow=none;html=1;rounded=0;" edge="1" parent="CJ9ukZXgwFHup2nmd63K-13">
          <mxGeometry width="50" height="50" relative="1" as="geometry">
            <mxPoint x="280" y="20" as="sourcePoint" />
            <mxPoint x="280" as="targetPoint" />
          </mxGeometry>
        </mxCell>
        <mxCell id="CJ9ukZXgwFHup2nmd63K-14" value="1" style="text;html=1;align=center;verticalAlign=middle;resizable=0;points=[];autosize=1;strokeColor=none;fillColor=none;" vertex="1" parent="1">
          <mxGeometry x="345" y="408" width="30" height="30" as="geometry" />
        </mxCell>
        <mxCell id="CJ9ukZXgwFHup2nmd63K-15" value="2" style="text;html=1;align=center;verticalAlign=middle;resizable=0;points=[];autosize=1;strokeColor=none;fillColor=none;" vertex="1" parent="1">
          <mxGeometry x="385" y="408" width="30" height="30" as="geometry" />
        </mxCell>
        <mxCell id="CJ9ukZXgwFHup2nmd63K-17" value="4" style="text;html=1;align=center;verticalAlign=middle;resizable=0;points=[];autosize=1;strokeColor=none;fillColor=none;" vertex="1" parent="1">
          <mxGeometry x="465" y="408" width="30" height="30" as="geometry" />
        </mxCell>
        <mxCell id="CJ9ukZXgwFHup2nmd63K-20" value="6" style="text;html=1;align=center;verticalAlign=middle;resizable=0;points=[];autosize=1;strokeColor=none;fillColor=none;" vertex="1" parent="1">
          <mxGeometry x="545" y="408" width="30" height="30" as="geometry" />
        </mxCell>
        <mxCell id="CJ9ukZXgwFHup2nmd63K-21" value="8" style="text;html=1;align=center;verticalAlign=middle;resizable=0;points=[];autosize=1;strokeColor=none;fillColor=none;" vertex="1" parent="1">
          <mxGeometry x="625" y="408" width="30" height="30" as="geometry" />
        </mxCell>
        <mxCell id="CJ9ukZXgwFHup2nmd63K-22" value="" style="endArrow=classic;html=1;rounded=0;" edge="1" parent="1">
          <mxGeometry width="50" height="50" relative="1" as="geometry">
            <mxPoint x="320" y="400" as="sourcePoint" />
            <mxPoint x="320" y="160" as="targetPoint" />
          </mxGeometry>
        </mxCell>
        <mxCell id="CJ9ukZXgwFHup2nmd63K-23" value="time [sec]" style="text;html=1;align=center;verticalAlign=middle;resizable=0;points=[];autosize=1;strokeColor=none;fillColor=none;" vertex="1" parent="1">
          <mxGeometry x="250" y="160" width="70" height="30" as="geometry" />
        </mxCell>
        <mxCell id="CJ9ukZXgwFHup2nmd63K-33" value="" style="endArrow=none;html=1;rounded=0;" edge="1" parent="1">
          <mxGeometry width="50" height="50" relative="1" as="geometry">
            <mxPoint x="310" y="360" as="sourcePoint" />
            <mxPoint x="330" y="360" as="targetPoint" />
          </mxGeometry>
        </mxCell>
        <mxCell id="CJ9ukZXgwFHup2nmd63K-34" value="" style="endArrow=none;html=1;rounded=0;" edge="1" parent="1">
          <mxGeometry width="50" height="50" relative="1" as="geometry">
            <mxPoint x="310" y="320" as="sourcePoint" />
            <mxPoint x="330" y="320" as="targetPoint" />
          </mxGeometry>
        </mxCell>
        <mxCell id="CJ9ukZXgwFHup2nmd63K-35" value="" style="endArrow=none;html=1;rounded=0;" edge="1" parent="1">
          <mxGeometry width="50" height="50" relative="1" as="geometry">
            <mxPoint x="310" y="280" as="sourcePoint" />
            <mxPoint x="330" y="280" as="targetPoint" />
          </mxGeometry>
        </mxCell>
        <mxCell id="CJ9ukZXgwFHup2nmd63K-36" value="" style="endArrow=none;html=1;rounded=0;" edge="1" parent="1">
          <mxGeometry width="50" height="50" relative="1" as="geometry">
            <mxPoint x="310" y="240" as="sourcePoint" />
            <mxPoint x="330" y="240" as="targetPoint" />
          </mxGeometry>
        </mxCell>
        <mxCell id="CJ9ukZXgwFHup2nmd63K-38" value="" style="endArrow=none;html=1;rounded=0;" edge="1" parent="1">
          <mxGeometry width="50" height="50" relative="1" as="geometry">
            <mxPoint x="310" y="200" as="sourcePoint" />
            <mxPoint x="330" y="200" as="targetPoint" />
          </mxGeometry>
        </mxCell>
        <mxCell id="CJ9ukZXgwFHup2nmd63K-44" value="" style="group" vertex="1" connectable="0" parent="1">
          <mxGeometry x="270" y="185" width="40" height="190" as="geometry" />
        </mxCell>
        <mxCell id="CJ9ukZXgwFHup2nmd63K-39" value="20" style="text;html=1;align=center;verticalAlign=middle;resizable=0;points=[];autosize=1;strokeColor=none;fillColor=none;" vertex="1" parent="CJ9ukZXgwFHup2nmd63K-44">
          <mxGeometry y="160" width="40" height="30" as="geometry" />
        </mxCell>
        <mxCell id="CJ9ukZXgwFHup2nmd63K-40" value="40" style="text;html=1;align=center;verticalAlign=middle;resizable=0;points=[];autosize=1;strokeColor=none;fillColor=none;" vertex="1" parent="CJ9ukZXgwFHup2nmd63K-44">
          <mxGeometry y="118" width="40" height="30" as="geometry" />
        </mxCell>
        <mxCell id="CJ9ukZXgwFHup2nmd63K-41" value="60" style="text;html=1;align=center;verticalAlign=middle;resizable=0;points=[];autosize=1;strokeColor=none;fillColor=none;" vertex="1" parent="CJ9ukZXgwFHup2nmd63K-44">
          <mxGeometry y="78" width="40" height="30" as="geometry" />
        </mxCell>
        <mxCell id="CJ9ukZXgwFHup2nmd63K-42" value="80" style="text;html=1;align=center;verticalAlign=middle;resizable=0;points=[];autosize=1;strokeColor=none;fillColor=none;" vertex="1" parent="CJ9ukZXgwFHup2nmd63K-44">
          <mxGeometry y="38" width="40" height="30" as="geometry" />
        </mxCell>
        <mxCell id="CJ9ukZXgwFHup2nmd63K-43" value="100" style="text;html=1;align=center;verticalAlign=middle;resizable=0;points=[];autosize=1;strokeColor=none;fillColor=none;" vertex="1" parent="CJ9ukZXgwFHup2nmd63K-44">
          <mxGeometry width="40" height="30" as="geometry" />
        </mxCell>
        <mxCell id="CJ9ukZXgwFHup2nmd63K-45" value="" style="shape=waypoint;sketch=0;size=6;pointerEvents=1;points=[];fillColor=none;resizable=0;rotatable=0;perimeter=centerPerimeter;snapToPoint=1;" vertex="1" parent="1">
          <mxGeometry x="630" y="360" width="20" height="20" as="geometry" />
        </mxCell>
        <mxCell id="CJ9ukZXgwFHup2nmd63K-46" value="" style="shape=waypoint;sketch=0;size=6;pointerEvents=1;points=[];fillColor=none;resizable=0;rotatable=0;perimeter=centerPerimeter;snapToPoint=1;" vertex="1" parent="1">
          <mxGeometry x="550" y="350" width="20" height="20" as="geometry" />
        </mxCell>
        <mxCell id="CJ9ukZXgwFHup2nmd63K-47" value="" style="shape=waypoint;sketch=0;size=6;pointerEvents=1;points=[];fillColor=none;resizable=0;rotatable=0;perimeter=centerPerimeter;snapToPoint=1;" vertex="1" parent="1">
          <mxGeometry x="470" y="340" width="20" height="20" as="geometry" />
        </mxCell>
        <mxCell id="CJ9ukZXgwFHup2nmd63K-49" value="" style="shape=waypoint;sketch=0;size=6;pointerEvents=1;points=[];fillColor=none;resizable=0;rotatable=0;perimeter=centerPerimeter;snapToPoint=1;" vertex="1" parent="1">
          <mxGeometry x="390" y="300" width="20" height="20" as="geometry" />
        </mxCell>
        <mxCell id="CJ9ukZXgwFHup2nmd63K-50" value="" style="shape=waypoint;sketch=0;size=6;pointerEvents=1;points=[];fillColor=none;resizable=0;rotatable=0;perimeter=centerPerimeter;snapToPoint=1;" vertex="1" parent="1">
          <mxGeometry x="350" y="230" width="20" height="20" as="geometry" />
        </mxCell>
        <mxCell id="CJ9ukZXgwFHup2nmd63K-51" value="x" style="text;html=1;align=center;verticalAlign=middle;resizable=0;points=[];autosize=1;strokeColor=none;fillColor=none;" vertex="1" parent="1">
          <mxGeometry x="345" y="230" width="30" height="30" as="geometry" />
        </mxCell>
        <mxCell id="CJ9ukZXgwFHup2nmd63K-52" value="sequential" style="text;html=1;align=center;verticalAlign=middle;resizable=0;points=[];autosize=1;strokeColor=none;fillColor=none;" vertex="1" parent="1">
          <mxGeometry x="420" y="210" width="80" height="30" as="geometry" />
        </mxCell>
        <mxCell id="CJ9ukZXgwFHup2nmd63K-53" value="" style="endArrow=none;html=1;rounded=0;dashed=1;entryX=0.125;entryY=0.667;entryDx=0;entryDy=0;entryPerimeter=0;" edge="1" parent="1" target="CJ9ukZXgwFHup2nmd63K-52">
          <mxGeometry width="50" height="50" relative="1" as="geometry">
            <mxPoint x="370" y="245" as="sourcePoint" />
            <mxPoint x="420" y="200" as="targetPoint" />
          </mxGeometry>
        </mxCell>
      </root>
    </mxGraphModel>
  </diagram>
</mxfile>
